<?xml version="1.0" encoding="iso-8859-1"?>
<!-- Generator: Adobe Illustrator 19.0.0, SVG Export Plug-In . SVG Version: 6.00 Build 0)  -->
<svg version="1.1" id="Capa_1" xmlns="http://www.w3.org/2000/svg" xmlns:xlink="http://www.w3.org/1999/xlink" x="0px" y="0px"
	 viewBox="0 0 511.998 511.998" style="enable-background:new 0 0 511.998 511.998;" xml:space="preserve">
<g>
	<g>
		<path d="M226.754,134.832l-54.839-54.84c-10.148-10.148-26.661-10.148-36.809,0l-21.701,21.701
			c-10.148,10.148-10.148,26.661,0,36.809l54.839,54.839c5.075,5.075,11.739,7.611,18.405,7.611c6.664,0,13.331-2.538,18.404-7.611
			l21.701-21.7C236.902,161.493,236.902,144.98,226.754,134.832z M216.449,161.336l-21.701,21.7
			c-2.164,2.163-5.04,3.355-8.099,3.355c-3.06,0-5.936-1.192-8.1-3.355l-54.839-54.839c-4.466-4.466-4.466-11.733,0-16.199
			l21.701-21.7c2.233-2.233,5.166-3.35,8.1-3.35c2.933,0,5.866,1.117,8.099,3.349l54.839,54.84c2.163,2.164,3.355,5.04,3.355,8.099
			C219.804,156.296,218.612,159.172,216.449,161.336z"/>
	</g>
</g>
<g>
	<g>
		<path d="M160.299,201.287l-54.84-54.84c-10.148-10.148-26.66-10.148-36.808,0L46.95,168.148
			c-10.148,10.148-10.148,26.661,0,36.809l54.839,54.84c5.074,5.074,11.739,7.611,18.404,7.611c6.665,0,13.331-2.537,18.405-7.611
			l21.701-21.701C170.447,227.948,170.447,211.435,160.299,201.287z M149.994,227.791l-21.701,21.7
			c-4.466,4.466-11.733,4.465-16.199,0l-54.839-54.84c-2.163-2.164-3.355-5.04-3.355-8.099c0-3.059,1.191-5.936,3.355-8.099
			l21.701-21.701c2.233-2.233,5.166-3.349,8.099-3.349s5.866,1.116,8.099,3.349l54.84,54.84
			C154.46,216.058,154.46,223.325,149.994,227.791z"/>
	</g>
</g>
<g>
	<g>
		<path d="M497.046,169.167l-69.014-69.014c-10.368-10.368-24.71-15.778-39.339-14.851c-3.394,0.216-6.725,0.782-9.958,1.648
			c-11.823-9.02-26.12-17.263-41.773-23.974c-23.273-9.979-46.941-15.475-66.648-15.475c-0.003,0-0.006,0-0.008,0
			c-2.722,0-5.33,0.114-7.832,0.325c-5.798-6.681-14.053-11.171-23.37-12.055l-66.574-6.319
			c-17.076-1.621-33.821,4.405-45.947,16.532l-69.659,69.659c-2.846,2.845-2.846,7.459,0,10.305c2.845,2.845,7.459,2.845,10.305,0
			l69.659-69.659c9.043-9.043,21.532-13.539,34.265-12.329l66.574,6.319c9.918,0.942,17.8,8.824,18.742,18.742l3.568,37.594
			c-0.067-0.06-0.135-0.12-0.203-0.181c-0.605-0.541-1.203-1.083-1.787-1.628c-0.514-0.478-1.02-0.958-1.516-1.439
			c-0.233-0.227-0.465-0.453-0.695-0.681c-0.7-0.692-1.388-1.385-2.051-2.081c-0.58-0.61-1.135-1.217-1.678-1.823
			c-0.13-0.145-0.259-0.289-0.387-0.433c-0.514-0.582-1.015-1.162-1.495-1.739c-0.108-0.129-0.209-0.257-0.315-0.386
			c-0.378-0.461-0.744-0.919-1.099-1.376c-0.148-0.19-0.298-0.381-0.442-0.57c-0.386-0.508-0.759-1.014-1.117-1.516
			c-0.177-0.249-0.346-0.495-0.516-0.742c-0.131-0.191-0.257-0.38-0.384-0.569c4.161-8.667,2.679-19.386-4.495-26.56
			c-9.08-9.08-23.855-9.081-32.937,0c-9.081,9.081-9.081,23.856,0,32.937c4.54,4.54,10.505,6.81,16.468,6.81
			c3.647,0,7.291-0.859,10.612-2.557c2.087,2.837,4.494,5.699,7.226,8.57c5.292,5.562,11.614,10.98,18.723,16.118l0.838,8.826
			c1.209,12.731-3.285,25.221-12.329,34.265l-117.66,117.66c-3.011,3.011-7.014,4.669-11.272,4.669s-8.261-1.658-11.272-4.669
			l-91.027-91.027c-3.011-3.011-4.669-7.014-4.669-11.272s1.658-8.261,4.669-11.272l14.341-14.341c2.846-2.845,2.846-7.459,0-10.305
			c-2.845-2.845-7.459-2.845-10.305,0l-14.34,14.339c-11.897,11.897-11.897,31.256,0,43.154l91.027,91.027
			c5.763,5.763,13.426,8.938,21.577,8.938s15.814-3.174,21.577-8.938l117.66-117.66c11.516-11.517,17.517-27.201,16.705-43.372
			c7.185,4.159,14.868,8.024,22.92,11.476c4.528,1.942,9.07,3.708,13.596,5.303l-40.956,52.939
			c-14.004,18.1-14.055,43.101-1.057,61.185l-33.631,33.631c-3.784,3.785-5.365,9.37-4.126,14.577
			c0.076,0.32-0.021,0.664-0.254,0.898l-24.269,24.269c-0.968,0.968-1.782,2.074-2.421,3.289l-13.664,26.027l-24.523,12.677
			c-2.595,1.342-4.723,3.53-5.993,6.162l-9.617,19.942l-29.197,18.289c-3.065,1.919-5.085,5.077-5.543,8.663l-4.241,33.138
			c-0.476,3.72,0.772,7.375,3.424,10.026c2.281,2.281,5.304,3.523,8.472,3.523c0.515,0,1.034-0.033,1.555-0.099l33.139-4.241
			c3.584-0.459,6.741-2.478,8.662-5.542l18.289-29.197l19.941-9.618c2.632-1.269,4.821-3.399,6.163-5.994l12.676-24.521
			l26.029-13.665c1.215-0.638,2.322-1.453,3.288-2.42l24.268-24.268c0.237-0.237,0.574-0.333,0.898-0.254
			c5.209,1.238,10.794-0.343,14.577-4.127l33.628-33.628c8.853,6.364,19.359,9.606,29.908,9.605c10.999,0,22.04-3.516,31.279-10.664
			l38.977-30.155c3.183-2.463,3.767-7.039,1.305-10.222c-2.462-3.182-7.039-3.768-10.222-1.305l-38.977,30.155
			c-14.308,11.069-34.643,9.952-47.666-2.489c-0.011-0.01-0.02-0.022-0.03-0.032l-0.293-0.277c-0.095-0.089-0.191-0.177-0.283-0.27
			l-45.876-45.876c-0.091-0.091-0.178-0.185-0.266-0.278l-0.287-0.303c-0.008-0.008-0.016-0.015-0.024-0.023
			c-12.442-13.022-13.561-33.36-2.491-47.669l44.289-57.247c13.513,3.63,26.546,5.563,38.192,5.563c0.002,0,0.006,0,0.008,0
			c3.463,0,6.751-0.174,9.857-0.514l58.166,58.166c4.216,4.215,9.753,6.323,15.29,6.323c5.537,0,11.074-2.108,15.29-6.323
			c8.431-8.431,8.431-22.148,0-30.579l-59.264-59.264c-4.084-4.084-9.514-6.333-15.29-6.333s-11.206,2.249-15.29,6.333
			c-4.084,4.084-6.334,9.514-6.334,15.29c0,0.769,0.046,1.531,0.125,2.286c-0.837,0.025-1.685,0.042-2.552,0.042
			c-0.003,0-0.004,0-0.007,0c-8.717,0-18.365-1.228-28.467-3.56l24.507-31.678c6.411-8.287,16.084-13.421,26.54-14.085
			c10.458-0.668,20.702,3.203,28.11,10.611l69.014,69.014c7.408,7.409,11.276,17.654,10.611,28.11
			c-0.664,10.456-5.798,20.13-14.085,26.54l-23.547,18.217c-3.183,2.463-3.767,7.039-1.305,10.222
			c2.462,3.182,7.038,3.766,10.222,1.305l23.547-18.217c11.597-8.972,18.781-22.51,19.712-37.142
			C512.827,193.873,507.414,179.535,497.046,169.167z M225.389,90.074c-2.328,0-4.517-0.907-6.164-2.553
			c-1.646-1.647-2.553-3.836-2.553-6.164s0.907-4.517,2.553-6.163c1.647-1.646,3.836-2.553,6.164-2.553
			c0.362,0,0.719,0.03,1.073,0.073c-0.82,5.208-0.029,10.825,2.307,16.681C227.713,89.839,226.569,90.074,225.389,90.074z
			 M281.795,278.481l36.922,36.922l-33.149,33.149c-0.233,0.233-0.579,0.33-0.898,0.254c-5.206-1.238-10.792,0.342-14.577,4.127
			l-24.163,24.163l-26.168,13.739c-2.477,1.299-4.465,3.3-5.752,5.787l-12.667,24.505l-19.9,9.598
			c-2.308,1.113-4.247,2.849-5.608,5.022l-17.801,28.418l-28.667,3.668l3.669-28.666l28.416-17.8
			c2.172-1.36,3.909-3.299,5.023-5.608l9.598-19.901l24.505-12.668c2.484-1.284,4.485-3.272,5.786-5.749l13.74-26.172l24.161-24.161
			c3.785-3.784,5.367-9.37,4.128-14.577c-0.078-0.326,0.018-0.662,0.254-0.898L281.795,278.481z M405.129,150.907l50.213,50.213
			c2.749,2.749,2.749,7.221,0,9.969c-1.332,1.332-3.102,2.065-4.985,2.065s-3.653-0.733-4.985-2.065l-51.949-51.949
			C398.251,157.062,402.19,154.305,405.129,150.907z M386.109,141.857c1.332-1.332,3.102-2.065,4.985-2.065
			c1.247,0,2.441,0.328,3.495,0.932c-2.052,2.727-5.664,4.878-10.535,6.324c-0.002-0.069-0.01-0.137-0.01-0.207
			C384.044,144.958,384.777,143.188,386.109,141.857z M351.55,105.013l-28.135,36.367c-5.72-1.861-11.505-4.029-17.284-6.507
			c-11.029-4.729-21.282-10.237-30.313-16.217l-4.842-51.014c-0.181-1.904-0.52-3.761-0.989-5.566c0.107,0,0.211-0.004,0.319-0.004
			c0.003,0,0.004,0,0.007,0c17.776,0,39.407,5.077,60.905,14.296c11.819,5.068,22.753,11.03,32.242,17.509
			C358.966,96.897,354.933,100.64,351.55,105.013z"/>
	</g>
</g>
<g>
</g>
<g>
</g>
<g>
</g>
<g>
</g>
<g>
</g>
<g>
</g>
<g>
</g>
<g>
</g>
<g>
</g>
<g>
</g>
<g>
</g>
<g>
</g>
<g>
</g>
<g>
</g>
<g>
</g>
</svg>
